<svg width="52" height="59" viewBox="0 0 52 59" fill="none" xmlns="http://www.w3.org/2000/svg">
<path d="M30.5788 37.1454C31.7424 37.9394 31.7424 39.6555 30.5788 40.4495L11.3772 53.5512C10.0497 54.457 8.25 53.5062 8.25 51.8991V25.6958C8.25 24.0887 10.0497 23.1379 11.3772 24.0437L30.5788 37.1454Z" fill="#3A80D5"/>
<path d="M13.548 22.1936C12.0909 21.1326 12.6707 18.837 14.4568 18.595L30.0848 16.4778C30.291 16.4498 30.5004 16.4543 30.7052 16.4909L47.1952 19.4386C48.9565 19.7534 49.4498 22.0455 47.974 23.057L32.0168 33.9948C31.3181 34.4737 30.3934 34.4606 29.7087 33.9619L13.548 22.1936Z" fill="#3A80D5"/>
</svg>
